<svg width="1024" height="1024" viewBox="0 0 1024 1024" xmlns="http://www.w3.org/2000/svg">
  <defs>
    <linearGradient id="dropGradient" x1="340" y1="180" x2="680" y2="820" gradientUnits="userSpaceOnUse">
      <stop offset="0%" stop-color="#D5F6FF"/>
      <stop offset="42%" stop-color="#63CBFF"/>
      <stop offset="100%" stop-color="#0F6CBD"/>
    </linearGradient>

    <filter id="softShadow" x="-24%" y="-24%" width="148%" height="156%">
      <feDropShadow dx="0" dy="20" stdDeviation="26" flood-color="#0B3A6F" flood-opacity="0.30"/>
    </filter>
  </defs>

  <path
    d="M512 162
       C512 162 284 421 284 596
       C284 731 384 836 512 836
       C640 836 740 731 740 596
       C740 421 512 162 512 162Z"
    fill="url(#dropGradient)"
    filter="url(#softShadow)"
  />

  <path
    d="M512 162
       C512 162 284 421 284 596
       C284 731 384 836 512 836
       C640 836 740 731 740 596
       C740 421 512 162 512 162Z"
    fill="none"
    stroke="#0A4E95"
    stroke-width="20"
    opacity="0.78"
  />

  <path
    d="M403 410 C358 472 336 535 336 590 C336 683 397 756 481 778"
    fill="none"
    stroke="#FFFFFF"
    stroke-width="38"
    stroke-linecap="round"
    opacity="0.44"
  />

  <ellipse cx="454" cy="362" rx="72" ry="112" fill="#FFFFFF" opacity="0.42" transform="rotate(31 424 362)"/>

  <path
    d="M512 196 C512 196 701 424 701 590"
    fill="none"
    stroke="#FFFFFF"
    stroke-width="16"
    stroke-linecap="round"
    opacity="0.22"
  />
</svg>
